0
SECTION
2
HEADER
9
$INSUNITS
70
4
9
$ACADVER
1
AC1014
9
$HANDSEED
5
FFFF
0
ENDSEC
0
SECTION
2
TABLES
0
TABLE
2
VPORT
5
8
100
AcDbSymbolTable
0
ENDTAB
0
TABLE
2
LTYPE
5
5
100
AcDbSymbolTable
0
LTYPE
5
14
100
AcDbSymbolTableRecord
100
AcDbLinetypeTableRecord
2
BYBLOCK
70
0
0
LTYPE
5
15
100
AcDbSymbolTableRecord
100
AcDbLinetypeTableRecord
2
BYLAYER
70
0
0
ENDTAB
0
TABLE
2
LAYER
5
2
100
AcDbSymbolTable
70
2
0
LAYER
5
50
100
AcDbSymbolTableRecord
100
AcDbLayerTableRecord
2
0
70
0
6
CONTINUOUS
0
ENDTAB
0
TABLE
2
STYLE
5
3
100
AcDbSymbolTable
70
1
0
STYLE
5
11
100
AcDbSymbolTableRecord
100
AcDbTextStyleTableRecord
2
STANDARD
70
0
0
ENDTAB
0
TABLE
2
VIEW
5
6
100
AcDbSymbolTable
70
0
0
ENDTAB
0
TABLE
2
UCS
5
7
100
AcDbSymbolTable
70
0
0
ENDTAB
0
TABLE
2
APPID
5
9
100
AcDbSymbolTable
70
2
0
APPID
5
12
100
AcDbSymbolTableRecord
100
AcDbRegAppTableRecord
2
ACAD
70
0
0
ENDTAB
0
TABLE
2
DIMSTYLE
5
A
100
AcDbSymbolTable
70
1
0
ENDTAB
0
TABLE
2
BLOCK_RECORD
5
1
100
AcDbSymbolTable
70
1
0
BLOCK_RECORD
5
1F
100
AcDbSymbolTableRecord
100
AcDbBlockTableRecord
2
*MODEL_SPACE
0
BLOCK_RECORD
5
1B
100
AcDbSymbolTableRecord
100
AcDbBlockTableRecord
2
*PAPER_SPACE
0
ENDTAB
0
ENDSEC
0
SECTION
2
BLOCKS
0
BLOCK
5
20
100
AcDbEntity
100
AcDbBlockBegin
2
*MODEL_SPACE
0
ENDBLK
5
21
100
AcDbEntity
100
AcDbBlockEnd
0
BLOCK
5
1C
100
AcDbEntity
100
AcDbBlockBegin
2
*PAPER_SPACE
0
ENDBLK
5
1D
100
AcDbEntity
100
AcDbBlockEnd
0
ENDSEC
0
SECTION
2
ENTITIES
0
LINE
5
100
100
AcDbEntity
8
0
100
AcDbLine
10
-6.7999999999999989
20
-9.9999999999999734
30
0
11
6.7999999999999989
21
-9.9999999999999734
31
0
0
LINE
5
101
100
AcDbEntity
8
0
100
AcDbLine
10
7.2999999999999998
20
-10.499999999999973
30
0
11
7.2999999999999998
21
-26.999999999999915
31
0
0
LINE
5
102
100
AcDbEntity
8
0
100
AcDbLine
10
-7.2999999999999998
20
-26.999999999999975
30
0
11
-7.2999999999999998
21
-10.499999999999973
31
0
0
LINE
5
103
100
AcDbEntity
8
0
100
AcDbLine
10
34.852191099691879
20
0
30
0
11
34.852191099691879
21
-5.4999999999999805
31
0
0
LINE
5
104
100
AcDbEntity
8
0
100
AcDbLine
10
-20.439909140498713
20
-19.999999999999964
30
0
11
-20.439909140498713
21
0
31
0
0
ARC
5
105
100
AcDbEntity
8
0
100
AcDbCircle
10
-13.43990914049871
20
-19.999999999999964
30
0
40
7.0000000000000036
210
0
220
0
230
1
100
AcDbArc
50
180
51
270.00000000000006
0
ARC
5
106
100
AcDbEntity
8
0
100
AcDbCircle
10
13.352191099691929
20
-5.4999999999999805
30
0
40
21.499999999999954
210
0
220
0
230
1
100
AcDbArc
50
-89.999999999999901
51
0
0
CIRCLE
5
107
100
AcDbEntity
8
0
100
AcDbCircle
10
-18.000000268220901
20
-2.0000000298023224
30
0
40
0.99999999999999978
210
0
220
0
230
1
0
CIRCLE
5
108
100
AcDbEntity
8
0
100
AcDbCircle
10
-13.000000268220901
20
-2.0000000298023224
30
0
40
0.99999999999999978
210
0
220
0
230
1
0
CIRCLE
5
109
100
AcDbEntity
8
0
100
AcDbCircle
10
26.999999731779099
20
-2.0000000298023224
30
0
40
0.99999999999999978
210
0
220
0
230
1
0
CIRCLE
5
110
100
AcDbEntity
8
0
100
AcDbCircle
10
31.999999731779099
20
-2.0000000298023224
30
0
40
0.99999999999999978
210
0
220
0
230
1
0
CIRCLE
5
111
100
AcDbEntity
8
0
100
AcDbCircle
10
21.999999731779099
20
-2.0000000298023224
30
0
40
0.99999999999999978
210
0
220
0
230
1
0
LINE
5
112
100
AcDbEntity
8
0
100
AcDbLine
10
13.352191099691957
20
-26.999999999999936
30
0
11
7.2999999999999998
21
-26.999999999999915
31
0
0
LINE
5
113
100
AcDbEntity
8
0
100
AcDbLine
10
-7.2999999999999998
20
-26.999999999999975
30
0
11
-13.439909140498704
21
-27
31
0
0
ARC
5
114
100
AcDbEntity
8
0
100
AcDbCircle
10
-7.2999999999999998
20
-9.9999999999999734
30
0
40
0.50000000000000044
210
0
220
0
230
1
100
AcDbArc
50
0
51
270
0
ARC
5
115
100
AcDbEntity
8
0
100
AcDbCircle
10
7.2999999999999998
20
-9.9999999999999734
30
0
40
0.50000000000000044
210
0
220
0
230
1
100
AcDbArc
50
-90
51
180
0
CIRCLE
5
116
100
AcDbEntity
8
0
100
AcDbCircle
10
-18.000000268220901
20
2.0000000298023224
30
0
40
0.99999999999999978
210
0
220
0
230
1
0
LINE
5
117
100
AcDbEntity
8
0
100
AcDbLine
10
-6.7999999999999989
20
9.9999999999999734
30
0
11
6.7999999999999989
21
9.9999999999999734
31
0
0
CIRCLE
5
118
100
AcDbEntity
8
0
100
AcDbCircle
10
26.999999731779099
20
2.0000000298023224
30
0
40
0.99999999999999978
210
0
220
0
230
1
0
ARC
5
119
100
AcDbEntity
8
0
100
AcDbCircle
10
-13.43990914049871
20
19.999999999999964
30
0
40
7.0000000000000373
210
0
220
-0
230
1
100
AcDbArc
50
89.999999999999972
51
180
0
ARC
5
120
100
AcDbEntity
8
0
100
AcDbCircle
10
13.352191099691982
20
5.499999999999976
30
0
40
21.499999999999901
210
0
220
-0
230
1
100
AcDbArc
50
0
51
90.000000000000057
0
LINE
5
121
100
AcDbEntity
8
0
100
AcDbLine
10
-7.2999999999999998
20
26.999999999999975
30
0
11
-7.2999999999999998
21
10.499999999999973
31
0
0
LINE
5
122
100
AcDbEntity
8
0
100
AcDbLine
10
7.2999999999999998
20
10.499999999999973
30
0
11
7.2999999999999998
21
26.999999999999915
31
0
0
CIRCLE
5
123
100
AcDbEntity
8
0
100
AcDbCircle
10
31.999999731779099
20
2.0000000298023224
30
0
40
0.99999999999999978
210
0
220
0
230
1
0
CIRCLE
5
124
100
AcDbEntity
8
0
100
AcDbCircle
10
-13.000000268220901
20
2.0000000298023224
30
0
40
0.99999999999999978
210
0
220
0
230
1
0
ARC
5
125
100
AcDbEntity
8
0
100
AcDbCircle
10
7.2999999999999998
20
9.9999999999999734
30
0
40
0.50000000000000044
210
0
220
0
230
1
100
AcDbArc
50
-180
51
90
0
CIRCLE
5
126
100
AcDbEntity
8
0
100
AcDbCircle
10
21.999999731779099
20
2.0000000298023224
30
0
40
0.99999999999999978
210
0
220
0
230
1
0
ARC
5
127
100
AcDbEntity
8
0
100
AcDbCircle
10
-7.2999999999999998
20
9.9999999999999734
30
0
40
0.50000000000000044
210
0
220
-0
230
1
100
AcDbArc
50
-270
51
0
0
LINE
5
128
100
AcDbEntity
8
0
100
AcDbLine
10
13.352191099691957
20
26.999999999999936
30
0
11
7.2999999999999998
21
26.999999999999915
31
0
0
LINE
5
129
100
AcDbEntity
8
0
100
AcDbLine
10
34.852191099691879
20
0
30
0
11
34.852191099691879
21
5.4999999999999805
31
0
0
LINE
5
130
100
AcDbEntity
8
0
100
AcDbLine
10
-7.2999999999999998
20
26.999999999999975
30
0
11
-13.439909140498704
21
27
31
0
0
LINE
5
131
100
AcDbEntity
8
0
100
AcDbLine
10
-20.439909140498713
20
19.999999999999964
30
0
11
-20.439909140498713
21
0
31
0
0
CIRCLE
5
132
100
AcDbEntity
8
0
100
AcDbCircle
10
12.000000208616257
20
15.999999761581423
30
0
40
1.7499999999999996
210
0
220
0
230
1
0
CIRCLE
5
133
100
AcDbEntity
8
0
100
AcDbCircle
10
12.000000208616257
20
-15.999999761581423
30
0
40
1.7499999999999996
210
0
220
0
230
1
0
CIRCLE
5
134
100
AcDbEntity
8
0
100
AcDbCircle
10
0
20
0
30
0
40
5.25
210
0
220
0
230
1
0
ENDSEC
0
SECTION
2
OBJECTS
0
DICTIONARY
5
C
100
AcDbDictionary
3
ACAD_GROUP
350
D
3
ACAD_MLINESTYLE
350
17
0
DICTIONARY
5
D
100
AcDbDictionary
0
DICTIONARY
5
1A
330
C
100
AcDbDictionary
0
DICTIONARY
5
17
100
AcDbDictionary
0
ENDSEC
0
EOF
